<svg xmlns="http://www.w3.org/2000/svg" xmlns:xlink="http://www.w3.org/1999/xlink" viewBox="0 0 512 512"><defs><filter id="luminosity-noclip" x="9.17" y="-7716" width="493.57" height="32766" filterUnits="userSpaceOnUse" color-interpolation-filters="sRGB"><feFlood flood-color="#fff" result="bg"/><feBlend in="SourceGraphic" in2="bg"/></filter><mask id="mask" x="9.17" y="-7716" width="493.57" height="32766" maskUnits="userSpaceOnUse"><g filter="url(#luminosity-noclip)"/></mask><linearGradient id="linear-gradient" x1="-57.21" y1="194.62" x2="436.36" y2="194.62" gradientTransform="translate(67.3 69.71) rotate(0.27)" gradientUnits="userSpaceOnUse"><stop offset="0" stop-color="#333"/><stop offset="1" stop-color="#e6e6e6"/></linearGradient><filter id="luminosity-noclip-2" x="9.17" y="18.43" width="493.57" height="493.57" filterUnits="userSpaceOnUse" color-interpolation-filters="sRGB"><feFlood flood-color="#fff" result="bg"/><feBlend in="SourceGraphic" in2="bg"/></filter><mask id="mask-2" x="9.17" y="18.43" width="493.57" height="493.57" maskUnits="userSpaceOnUse"><g mask="url(#mask)" filter="url(#luminosity-noclip-2)"><path d="M502.72,262c1.76,136.28-107.29,248.18-243.57,250S11,404.69,9.19,268.41s107.29-248.19,243.57-250S501,125.74,502.72,262Z" fill="url(#linear-gradient)" style="mix-blend-mode:multiply"/></g></mask><linearGradient id="linear-gradient-2" x1="-57.21" y1="194.62" x2="436.36" y2="194.62" gradientTransform="translate(67.3 69.71) rotate(0.27)" gradientUnits="userSpaceOnUse"><stop offset="0" stop-color="#572700"/><stop offset="1" stop-color="#572700"/></linearGradient><clipPath id="clip-path"><circle cx="256.04" cy="246.79" r="246.78" transform="translate(-3.17 3.34) rotate(-0.74)" fill="none"/></clipPath></defs><title>facebook-other</title><g style="isolation:isolate"><g id="Layer_1" data-name="Layer 1"><g mask="url(#mask-2)"><path d="M502.72,262c1.76,136.28-107.29,248.18-243.57,250S11,404.69,9.19,268.41s107.29-248.19,243.57-250S501,125.74,502.72,262Z" fill="url(#linear-gradient-2)" style="mix-blend-mode:multiply"/></g><circle cx="256.04" cy="246.79" r="246.78" transform="translate(-3.17 3.34) rotate(-0.74)" fill="#bd9268"/><g clip-path="url(#clip-path)"><g opacity="0.2"><path d="M51.61,69.49c4-60.09-4.85-84.6-1.31-175l10.7,0c-1.49,34.34,1.31,72.54-.57,120.31-.31,7.78-3.26,27.47-3.37,32.83-3.68,186.11,1.9,418.52-4.9,579.67-5.08-124.4,2.45-371.55-.77-514.07-6.2,113.45-1,349.64-5.48,481.24-3.55-149.83-.17-422.68,1.72-590.64C52.82-11.81,46.44,85.16,51.61,69.49Z" fill="#fcfbe7" fill-rule="evenodd"/><path d="M76-105.41l3.22,0C78.35-72.13,80.1-11.17,77.6,4,73.15,5.51,76.84-72.13,76-105.41Z" fill="#fcfbe7" fill-rule="evenodd"/><path d="M104.85-105.27h3.21c-.89,44,.84,116.32-1.74,142.19C101.74,29.43,105.81-62.38,104.85-105.27Z" fill="#fcfbe7" fill-rule="evenodd"/><path d="M169-105h2.14c3.22,70.51,2.17,290.49-1.71,360.95C164.91,178.62,169.87,8.65,169-105Z" fill="#fcfbe7" fill-rule="evenodd"/><path d="M184-104.9l7.49,0q-.6,125.8-1.2,251.57c-1.69.92-4-5.28-4.34,10.93,1.76,52.69,9.57,101.27,5.59,175-3.94,10.61-.24-53.28-5.19-32.84-3-1.81.56,67.41-2.45,65.6C177.58,302,188.24,73,180.18,26.35,178.49-49.44,185.72-29.1,184-104.9Z" fill="#fcfbe7" fill-rule="evenodd"/><path d="M197.93-104.83h2.14c2.62,186.12,1,535.51-3.48,732.83C192.56,427.26,198.21,132.33,197.93-104.83Z" fill="#fcfbe7" fill-rule="evenodd"/><path d="M273.86-104.47l7.5,0c-2.12,249.39.29,547.37-7.76,732.81-4.62,31.22-1.81-42.34-2.91-65.62-.79-17.13-5.12-62.94-2.58-131.28-.11,2.79,3.27-28.1,3.36-32.81C274.36,252.52,271.45,59.65,273.86-104.47Z" fill="#fcfbe7" fill-rule="evenodd"/><path d="M364.79-104l10.7.05c1.66,16.09-2.22,59.54-.47,98.45.6,13.24,2.92,5.64,3.1,21.87,1.6,131.23.75,508-2.75,579.72-.6,12.25-4.89,23.26-5.51,32.78-2.82-14.86-4.25-204.14,3-185.94q.13-27.35.26-54.68c1.38-44.76-6.57,1.45-4-54.7-.89-36.53,1.66-35.87,4.44-32.79q.55-114.86,1.09-229.7l-6.41,0c-2.88-7.84.51,51.59-2.34,43.75C361.23,83.66,365.76-37,364.79-104Zm4.67,142.22C372,23,370.23-37.95,371-71.18l-3.2,0C368.71-37.93,365,39.72,369.46,38.18Z" fill="#fcfbe7" fill-rule="evenodd"/><path d="M393.67-103.9l3.22,0c3.34,130.21-10,231.28-1.46,306.26-7.24,25.74-.51,201.52-6.49,240.59-.05-102-4.77-360,.14-481.26C388.78-30.83,397.66-61.91,393.67-103.9Z" fill="#fcfbe7" fill-rule="evenodd"/><path d="M440.75-103.68h3.2c-1.07,80.33.51,189.48-2.25,251.56C437,106.3,441.69-26,440.75-103.68Z" fill="#fcfbe7" fill-rule="evenodd"/><path d="M447.17-103.65l7.48,0c-2.43,131,2.21,338.08-5.18,415.63,3.88,18,3.77,129.76,1.3,175-4-9.25,0-97.26-6-87.54Q446,147.91,447.17-103.65Z" fill="#fcfbe7" fill-rule="evenodd"/><path d="M411.7-71h3.21c-1.68,204.18-.65,437.5-4,623.42C406.7,388.08,412.15,129.74,411.7-71Z" fill="#fcfbe7" fill-rule="evenodd"/><path d="M418.12-71l4.28,0C421.22-37.68,424.16,40,419.74,38.42,415.29,40,419-37.69,418.12-71Z" fill="#fcfbe7" fill-rule="evenodd"/><path d="M494.06-70.6l4.29,0C498.42-36,504.41-5.28,500,38.8,497.13,10.93,491.9,6.13,494.06-70.6Z" fill="#fcfbe7" fill-rule="evenodd"/><path d="M162.31-39.37h3.21c-1.33,131.3,0,291.63-3,404.69C158,273.54,163.09,88.72,162.31-39.37Z" fill="#fcfbe7" fill-rule="evenodd"/><path d="M353.78-38.46l3.22,0c-.83,33.26.93,94.22-1.6,109.38C351,72.45,354.66-5.17,353.78-38.46Z" fill="#fcfbe7" fill-rule="evenodd"/><path d="M428.66-38.11l7.5,0c-1.12,83.94.47,196.78-2.31,262.51-4.06-9.24,0-97.26-6-87.52-1.44-46.16,5.93,2.4,4.49-43.74,1.24-32.89-2.29-19.39-4.17-21.89Q428.4,16.62,428.66-38.11Z" fill="#fcfbe7" fill-rule="evenodd"/><path d="M469.3-37.91l3.22,0q-.11,21.87-.21,43.76C468.69,16.82,468.87-9.33,469.3-37.91Z" fill="#fcfbe7" fill-rule="evenodd"/><path d="M17.53,36.51l3.22,0c-1.11,83.95.47,196.77-2.32,262.51C13.78,253.87,18.47,117.73,17.53,36.51Z" fill="#fcfbe7" fill-rule="evenodd"/><path d="M118.08,37c1.7.92,4.11-5.24,4.24,11C123.29,86.35,115.61,77.21,118.08,37Z" fill="#fcfbe7" fill-rule="evenodd"/><path d="M154.45,37.16l3.22,0c-.84,33.23.91,94.24-1.6,109.37C151.63,148.07,155.32,70.44,154.45,37.16Z" fill="#fcfbe7" fill-rule="evenodd"/><path d="M104,69.74l3.21,0q-.11,21.88-.21,43.76C103.41,124.47,103.6,98.31,104,69.74Z" fill="#fcfbe7" fill-rule="evenodd"/><path d="M136.12,69.89h3.2c-1.58,182.3-.44,393.73-3.71,557.81C129,442,136.27,313.41,136.12,69.89Z" fill="#fcfbe7" fill-rule="evenodd"/><path d="M289.08,70.62c3.62-13.44,2.26,73.95.7,76.56C286.16,160.63,287.52,73.23,289.08,70.62Z" fill="#fcfbe7" fill-rule="evenodd"/><path d="M309.41,70.71l3.2,0q-.11,21.88-.21,43.76C308.8,125.44,309,99.28,309.41,70.71Z" fill="#fcfbe7" fill-rule="evenodd"/><path d="M328.66,70.8c3.61-13.43,2.27,74,.7,76.56C325.74,160.81,327.1,73.42,328.66,70.8Z" fill="#fcfbe7" fill-rule="evenodd"/><path d="M461.3,71.43l3.22,0c-1.06,73,.57,174.86-2.18,229.69C457.69,266.58,462.28,142,461.3,71.43Z" fill="#fcfbe7" fill-rule="evenodd"/><path d="M38.56,113.19h3.23c-1.52,167.72-.32,364.57-3.53,514.05C33.92,499.22,39.18,277.56,38.56,113.19Z" fill="#fcfbe7" fill-rule="evenodd"/><path d="M110.23,113.53c1.69.89,4.11-5.26,4.24,10.94C115.44,162.89,107.76,153.75,110.23,113.53Z" fill="#fcfbe7" fill-rule="evenodd"/><path d="M230,114.1h3.21c-.9,44,.84,116.29-1.75,142.17C226.93,248.79,231,157,230,114.1Z" fill="#fcfbe7" fill-rule="evenodd"/><path d="M301.7,114.44h2.15c3.76,99,.64,320.41-1,437.48-5.65-17.65-2.67-115-2.33-185.95C300.91,281.45,301.33,192.41,301.7,114.44Z" fill="#fcfbe7" fill-rule="evenodd"/><path d="M84.75,299.35c5.38,23.39,1.23-55.7,5.55-43.74,4.11-8.75,1.12,51.74,1.77,76.58l-4.27,0c.33,62.83-3.21,163.4,3.49,164.07-3.73,21.16-5.73,60.93-4.89,131.24l-7.49,0c-.39-55.31,2.81-145.64-2.48-153.16,7.43-54.1.7-260.59,6.9-328.09,4.46,1.84-.37,94.07,4.94,87.53C88.44,270.08,83,245.57,84.75,299.35Z" fill="#fcfbe7" fill-rule="evenodd"/><path d="M204,190.52h2.13c9.09,88.38,3.28,324.13-1,437.52-5.65-17.66-2.65-115.08-2.32-186C203.22,357.56,203.65,268.5,204,190.52Z" fill="#fcfbe7" fill-rule="evenodd"/><path d="M27.19,255.31l3.21,0q-.11,21.87-.21,43.76C26.57,310,26.76,283.91,27.19,255.31Z" fill="#fcfbe7" fill-rule="evenodd"/><path d="M150,299.66h3.21c-.7,19.21,1,64.25-1.38,65.61C147.92,375.64,150.54,322.2,150,299.66Z" fill="#fcfbe7" fill-rule="evenodd"/><path d="M229.16,300h3.21c-.78,73.67-1.4,145.78,3.5,164.08.66,41.57-5.12,13.89-7.59,21.84Q228.71,393,229.16,300Z" fill="#fcfbe7" fill-rule="evenodd"/><path d="M352.17,300.62l3.22,0c-.91,44,.84,116.31-1.76,142.16C349.05,435.28,353.12,343.49,352.17,300.62Z" fill="#fcfbe7" fill-rule="evenodd"/><path d="M460.06,333.94l3.22,0c-1.16,94.83.36,218.69-2.49,295.31C456.17,573.43,461,425.9,460.06,333.94Z" fill="#fcfbe7" fill-rule="evenodd"/><path d="M26.67,364.69l3.21,0c-1,58.49.72,145.64-2,185.93C23.27,529.93,27.65,421.18,26.67,364.69Z" fill="#fcfbe7" fill-rule="evenodd"/><path d="M166.8,365.35l4.28,0c-.89,24.83,1.53,85.33-2.5,76.55C164.47,450.66,167.46,390.19,166.8,365.35Z" fill="#fcfbe7" fill-rule="evenodd"/><path d="M496.26,366.92l3.22,0c-.92,47.65.8,123.64-1.81,153.12C493.09,509.34,497.24,413.15,496.26,366.92Z" fill="#fcfbe7" fill-rule="evenodd"/><path d="M149.48,409h3.21c-.82,33.24.91,94.19-1.58,109.36C146.66,519.95,150.35,442.31,149.48,409Z" fill="#fcfbe7" fill-rule="evenodd"/><path d="M260.74,409.56c1.68.91,4.09-5.24,4.22,10.94C265.95,458.9,258.25,449.78,260.74,409.56Z" fill="#fcfbe7" fill-rule="evenodd"/><path d="M415.68,443.1l4.28,0c-.9,24.84,1.52,85.34-2.5,76.56C413.34,528.41,416.35,467.94,415.68,443.1Z" fill="#fcfbe7" fill-rule="evenodd"/><path d="M-6,255.16C-6.35,199.85-3.16,109.53-8.45,102-9.93,59.21-5.58,79.39-5,58.3-10.11,26.46-7.54-47-3.34-73c5-20.45,1.25,43.45,5.18,32.83C5-40.29.73-121.19,5.37-105.75,10-74.66,5.51,46,6.47,113L2.2,113C4,189.49-3.69,358.12,5.28,364.59c-.91,47.65.81,123.64-1.8,153.12C-3.54,487.95,3.52,267.06-6,255.16Z" fill="#fcfbe7" fill-rule="evenodd"/><path d="M254,256.39h-2.14c-3.07,1.47.57,75.09-2.49,76.56-2.24-94,4-293.47,4.2-437.51,4.3-29.37.75,38.47,1.88,54.71.25,3.48,4.26,12,4.23,10.94,2,68.88-2.53,171.77-1.24,262.51-1.7.89-4-5.27-4.33,10.92-1.23,32.9,2.29,19.39,4.18,21.89-1.71,81.22,1.68,217.39-3.38,262.49C250.22,473.76,254.9,337.62,254,256.39Z" fill="#fcfbe7" fill-rule="evenodd"/><path d="M327.91,5.18c.82-33.25-.93-94.21,1.58-109.38,4.12,19,6.56,54.23,7,109.42,5.16,5.67.15-98.1,3.74-109.38,3.43,36.64,2.25,99.74,1.46,142.2,0,2.42-3.08-2.53-3.2,0-4.22,86.95,3,178.16,2,262.53,0,1.92-3.11-2.14-3.2,0-2.38,55.22,1.74,151.17-2.11,218.74-6.43-6.93,4-178.21-5.69-153.16q.15-32.84.31-65.61l7.48,0q.18-38.29.37-76.57c-4.77-20.48-1.68,43.43-5.5,32.79-3.92,10.34-1.3-43.09-1.82-65.65l4.27,0q.42-87.49.83-175C335-8.31,330.09,11.7,327.91,5.18Z" fill="#fcfbe7" fill-rule="evenodd"/><path d="M98,430.66c-2.15-25.09-5.07-60.29.36-76.56-6.93-52.64.29-145.84,2.06-207.83,5.69,19.73,2.65,116.35,2.32,186-.35,73.32-.75,157.35-1,218.74C95,524,98.94,612.83,96,627.53c-7.71-39.05,8.13-124.92-1.41-153.16C93.13,431.58,97.5,451.75,98,430.66Z" fill="#fcfbe7" fill-rule="evenodd"/><path d="M478.6,257.46c1.85,6.29,6.36-13.19,6.37,11-1.78,31.05-6.18,93.83-2.81,142.19,4.82,13.47.26-73.93,3.58-76.55,8.31,16.58-.73,93.55-2.66,109.35C476.8,427.9,477.93,340.43,478.6,257.46Z" fill="#fcfbe7" fill-rule="evenodd"/><path d="M483.92,487.18c1.7.92,4.12-5.22,4.23,10.95-4.89,12.55-4.19,85.28-6,131.24C476.66,602.43,482.32,512.45,483.92,487.18Z" fill="#fcfbe7" fill-rule="evenodd"/></g><path d="M474.7,513.35h-2.18c.56-22.71-.64-64.32,1.08-74.68C476.63,437.62,474.12,490.63,474.7,513.35Z" fill="#ad805d" fill-rule="evenodd"/><path d="M455,513.26h-2.19c.56-22.71-.63-64.32,1.09-74.68C456.91,437.53,454.39,490.53,455,513.26Z" fill="#ad805d" fill-rule="evenodd"/><path d="M440.38,513.19h-2.19c.87-79.69-.12-179.19,1.9-246.43C443.19,319.57,439.81,435.62,440.38,513.19Z" fill="#ad805d" fill-rule="evenodd"/><path d="M430.16,513.14c1.58-129.6-.51-298.5,3.38-403.26,4.12,74.94-1.81,185.77.17,268.85,0,1.87,2.07,20.13,2.1,22.41.42,40.68-.84,77.24-.53,112Z" fill="#ad805d" fill-rule="evenodd"/><path d="M380.33,393.41c-2.72,41,3.31,57.76.89,119.5l-7.31,0c1-23.44-.9-49.53.39-82.14.2-5.31,2.22-18.76,2.3-22.41,2.51-127.07-1.3-285.75,3.34-395.78,3.46,84.94-1.68,253.69.52,351,4.23-77.46.67-238.72,3.75-328.57,2.42,102.3.11,288.59-1.18,403.26C379.5,448.92,383.86,382.71,380.33,393.41Z" fill="#ad805d" fill-rule="evenodd"/><path d="M363.69,512.82H361.5c.57-22.71-.62-64.32,1.09-74.68C365.62,437.09,363.1,490.1,363.69,512.82Z" fill="#ad805d" fill-rule="evenodd"/><path d="M344,512.73h-2.19c.61-30.07-.57-79.42,1.19-97.07C346.1,420.76,343.32,483.44,344,512.73Z" fill="#ad805d" fill-rule="evenodd"/><path d="M334.49,512.68c-1.5-4.45-4.85,9.21-5.09-7.5,1.49-15.43,2-41.08,5.3-37.31Q334.59,490.26,334.49,512.68Z" fill="#ad805d" fill-rule="evenodd"/><path d="M309.64,512.56h-2.19c.49-13.13-.67-43.89.95-44.8C311.07,460.69,309.28,497.17,309.64,512.56Z" fill="#ad805d" fill-rule="evenodd"/><path d="M300.16,512.52h-1.46c-2.2-48.14-1.48-198.34,1.17-246.44C303,318.91,299.58,435,300.16,512.52Z" fill="#ad805d" fill-rule="evenodd"/><path d="M289.93,512.47l-5.11,0q.41-85.89.82-171.76c1.16-.63,2.77,3.6,3-7.46-1.2-36-6.53-69.14-3.82-119.5,2.69-7.25.16,36.37,3.54,22.41,2.07,1.23-.38-46,1.68-44.79,4.34,43.29-2.94,199.68,2.56,231.51C293.71,474.61,288.77,460.73,289.93,512.47Z" fill="#ad805d" fill-rule="evenodd"/><path d="M280.43,512.43H279c-1.79-127.08-.68-365.62,2.38-500.34C284.1,149.14,280.24,350.51,280.43,512.43Z" fill="#ad805d" fill-rule="evenodd"/><path d="M228.58,512.18l-5.12,0c1.45-170.27-.2-373.72,5.3-500.33,3.15-21.31,1.23,28.91,2,44.81.54,11.7,3.5,43,1.76,89.63.08-1.9-2.23,19.18-2.29,22.4C228.24,268.45,230.23,400.13,228.58,512.18Z" fill="#ad805d" fill-rule="evenodd"/><path d="M166.5,511.89l-7.3,0c-1.14-11,1.52-40.65.32-67.22-.41-9-2-3.85-2.12-14.93-1.09-89.6-.52-346.81,1.88-395.8.4-8.37,3.34-15.88,3.76-22.38,1.93,10.15,2.9,139.38-2.07,127q-.09,18.68-.18,37.33c-.94,30.56,4.49-1,2.75,37.35.61,24.94-1.13,24.49-3,22.38q-.38,78.42-.75,156.83l4.38,0c2,5.35-.35-35.22,1.6-29.87C168.93,383.74,165.84,466.13,166.5,511.89Zm-3.19-97.09c-1.72,10.33-.53,52-1.08,74.66h2.18C163.82,466.75,166.34,413.74,163.31,414.79Z" fill="#ad805d" fill-rule="evenodd"/><path d="M146.78,511.79h-2.2c-2.28-88.9,6.82-157.91,1-209.1,4.94-17.57.34-137.59,4.43-164.26,0,69.63,3.26,245.8-.09,328.58C150.12,461.9,144.06,483.12,146.78,511.79Z" fill="#ad805d" fill-rule="evenodd"/><path d="M114.64,511.64h-2.18c.73-54.84-.35-129.37,1.54-171.75C117.17,368.27,114,458.62,114.64,511.64Z" fill="#ad805d" fill-rule="evenodd"/><path d="M110.26,511.62l-5.11,0c1.66-89.44-1.51-230.82,3.54-283.77-2.65-12.27-2.58-88.6-.89-119.49,2.76,6.32,0,66.41,4.09,59.77Q111.08,339.87,110.26,511.62Z" fill="#ad805d" fill-rule="evenodd"/><path d="M83.25,511.49c-1.16-.64-2.81,3.57-2.9-7.49C79.69,477.78,84.93,484,83.25,511.49Z" fill="#ad805d" fill-rule="evenodd"/><path d="M46,511.31H43.81c1.4-66.06-1.55-178.89,3.18-209.09.36-24.82-3.55-8.12-2-44.81C49.79,211.92,46.35,78.26,49.1,11c2.32,50.77.81,138.25.37,231.5C49,347.9,49.58,474.27,46,511.31Z" fill="#ad805d" fill-rule="evenodd"/><path d="M35.78,511.26h-2.2c.8-64.77-.25-149.31,1.69-201.62C38.42,347.75,35.14,448.46,35.78,511.26Z" fill="#ad805d" fill-rule="evenodd"/><path d="M31.39,511.24H28.47c.8-22.71-1.21-75.74,1.8-74.68C33.31,435.52,30.8,488.52,31.39,511.24Z" fill="#ad805d" fill-rule="evenodd"/><path d="M13.86,511.16h-2.2c.75-121.3,1.06-264.27,1.88-395.78.19-30.05-1.39-93.61,2.69-104.55,4,8.91,1.79,67.65,1.74,97.09-.07,34.12.11,79-.53,112-.31,15.48-1.67,6.83-2.31,22.39C12.23,314.13,16.18,426.67,13.86,511.16Z" fill="#ad805d" fill-rule="evenodd"/><path d="M447.78,490.81H445.6c.56-22.69-.63-64.33,1.09-74.66C449.71,415.08,447.19,468.1,447.78,490.81Z" fill="#ad805d" fill-rule="evenodd"/><path d="M134.48,489.32h-2.2c1.15-139.41.45-298.71,2.75-425.64C137.89,175.89,134.16,352.27,134.48,489.32Z" fill="#ad805d" fill-rule="evenodd"/><path d="M130.1,489.3h-2.93c.8-22.71-1.21-75.74,1.81-74.66C132,413.57,129.5,466.59,130.1,489.3Z" fill="#ad805d" fill-rule="evenodd"/><path d="M78.24,489.06l-2.93,0c0-23.58-4.14-44.58-1.1-74.67C76.14,433.39,79.72,436.67,78.24,489.06Z" fill="#ad805d" fill-rule="evenodd"/><path d="M304.75,467.73h-2.19c.9-89.64,0-199.11,2-276.3C307.66,254.09,304.21,380.28,304.75,467.73Z" fill="#ad805d" fill-rule="evenodd"/><path d="M174,467.11h-2.2c.57-22.7-.64-64.33,1.09-74.68C175.93,391.39,173.43,444.39,174,467.11Z" fill="#ad805d" fill-rule="evenodd"/><path d="M122.9,466.87l-5.12,0c.76-57.31-.32-134.35,1.58-179.22,2.77,6.31,0,66.4,4.11,59.76,1,31.51-4.05-1.64-3.06,29.86-.85,22.46,1.55,13.24,2.85,14.95Q123.08,429.51,122.9,466.87Z" fill="#ad805d" fill-rule="evenodd"/><path d="M95.14,466.74H92.95q.07-14.92.14-29.88C95.56,429.36,95.44,447.23,95.14,466.74Z" fill="#ad805d" fill-rule="evenodd"/><path d="M6.91,436.44H4.72c.56-22.7-.63-64.31,1.09-74.68C8.84,360.72,6.32,413.73,6.91,436.44Z" fill="#ad805d" fill-rule="evenodd"/><path d="M469.33,416.24c-2.48,9.16-1.55-50.5-.49-52.29C471.31,354.78,470.39,414.44,469.33,416.24Z" fill="#ad805d" fill-rule="evenodd"/><path d="M403.59,415.93h-2.2c.76-57.32-.32-134.35,1.59-179.24C406.16,267.52,403,360.47,403.59,415.93Z" fill="#ad805d" fill-rule="evenodd"/><path d="M334.95,415.61c-1.16-.63-2.81,3.57-2.89-7.49C331.38,381.9,336.63,388.14,334.95,415.61Z" fill="#ad805d" fill-rule="evenodd"/><path d="M310.11,415.49h-2.19c.57-22.69-.63-64.34,1.09-74.68C312,339.76,309.52,392.76,310.11,415.49Z" fill="#ad805d" fill-rule="evenodd"/><path d="M31.85,414.17H30.39c-2.72-18.7-1-118.54,0-149.36C35,273.81,30.89,368.94,31.85,414.17Z" fill="#ad805d" fill-rule="evenodd"/><path d="M450.44,393.74h-2.2q.07-14.94.14-29.88C450.86,356.38,450.73,374.24,450.44,393.74Z" fill="#ad805d" fill-rule="evenodd"/><path d="M344.54,393.24h-2.19q.07-14.93.14-29.88C345,355.87,344.83,373.73,344.54,393.24Z" fill="#ad805d" fill-rule="evenodd"/><path d="M322.63,393.14h-2.18c1.07-124.46.3-268.82,2.53-380.85C327.51,139.05,322.52,226.88,322.63,393.14Z" fill="#ad805d" fill-rule="evenodd"/><path d="M218.19,392.64c-2.47,9.17-1.55-50.49-.48-52.27C220.18,331.18,219.26,390.86,218.19,392.64Z" fill="#ad805d" fill-rule="evenodd"/><path d="M204.31,392.57h-2.18q.07-14.94.14-29.88C204.73,355.21,204.62,373.07,204.31,392.57Z" fill="#ad805d" fill-rule="evenodd"/><path d="M191.17,392.51c-2.47,9.17-1.55-50.49-.48-52.27C193.16,331.06,192.24,390.73,191.17,392.51Z" fill="#ad805d" fill-rule="evenodd"/><path d="M100.61,392.08H98.41c.72-49.85-.39-119.38,1.48-156.82C103.08,258.85,99.94,343.91,100.61,392.08Z" fill="#ad805d" fill-rule="evenodd"/><path d="M389.24,363.58H387c1-114.51.23-248.91,2.41-351C392.4,100,388.81,251.35,389.24,363.58Z" fill="#ad805d" fill-rule="evenodd"/><path d="M340.3,363.34c-1.16-.61-2.8,3.59-2.89-7.47C336.75,329.64,342,335.88,340.3,363.34Z" fill="#ad805d" fill-rule="evenodd"/><path d="M258.5,363h-2.19c.61-30-.57-79.4,1.19-97.07C260.63,271,257.85,333.68,258.5,363Z" fill="#ad805d" fill-rule="evenodd"/><path d="M209.57,362.72h-1.47c-2.57-67.59-.44-218.76.69-298.69,3.86,12.05,1.82,78.54,1.59,127C210.11,248.69,209.83,309.49,209.57,362.72Z" fill="#ad805d" fill-rule="evenodd"/><path d="M357.7,236.47c-3.67-16-.84,38-3.79,29.86-2.8,6-.76-35.33-1.2-52.28h2.92c-.23-42.9,2.19-111.56-2.38-112,2.55-14.45,3.91-41.61,3.34-89.61l5.12,0c.26,37.76-1.93,99.44,1.69,104.57C358.3,154,362.89,295,358.67,341c-3-1.25.26-64.23-3.37-59.76C355.17,256.46,358.93,273.19,357.7,236.47Z" fill="#ad805d" fill-rule="evenodd"/><path d="M22,339.44h-2.2c.57-22.71-.62-64.33,1.1-74.68C23.91,263.7,21.38,316.71,22,339.44Z" fill="#ad805d" fill-rule="evenodd"/><path d="M470.55,311.7h-2.18c.65-37.47-.51-94.43,1.29-119.48C472.83,204.07,469.88,275.47,470.55,311.7Z" fill="#ad805d" fill-rule="evenodd"/><path d="M276.28,310.77h-1.46c-6.2-60.34-2.23-221.3.69-298.72,3.86,12.06,1.81,78.57,1.58,127C276.82,196.73,276.53,257.54,276.28,310.77Z" fill="#ad805d" fill-rule="evenodd"/><path d="M475.15,266.91c-2.47,9.17-1.55-50.48-.48-52.28C477.14,205.47,476.21,265.11,475.15,266.91Z" fill="#ad805d" fill-rule="evenodd"/><path d="M397,266.54h-2.2q.07-14.94.14-29.88C397.43,229.18,397.3,247,397,266.54Z" fill="#ad805d" fill-rule="evenodd"/><path d="M313.15,236.26H311c.48-13.12-.68-43.87.94-44.79C314.57,184.38,312.78,220.87,313.15,236.26Z" fill="#ad805d" fill-rule="evenodd"/><path d="M259.11,236h-2.19c.53-50.3,1-99.52-2.39-112-.45-28.38,3.49-9.49,5.18-14.91Q259.41,172.55,259.11,236Z" fill="#ad805d" fill-rule="evenodd"/><path d="M175.12,235.61h-2.2c.62-30.06-.57-79.41,1.2-97.07C177.24,143.66,174.46,206.34,175.12,235.61Z" fill="#ad805d" fill-rule="evenodd"/><path d="M32.71,234.93H29.79c.8-22.71-1.21-75.73,1.8-74.67C34.62,159.21,32.11,212.21,32.71,234.93Z" fill="#ad805d" fill-rule="evenodd"/><path d="M101.46,212.86h-2.2C100.06,148.1,99,63.54,101,11.22,104.12,49.34,100.84,150.07,101.46,212.86Z" fill="#ad805d" fill-rule="evenodd"/><path d="M488.64,192.3h-2.18c0-10,.09-19.9.14-29.88C489.08,154.91,488.95,172.79,488.64,192.3Z" fill="#ad805d" fill-rule="evenodd"/><path d="M397.35,191.86h-2.2c.67-39.94-.49-99.44,1.34-126.94C399.67,79,396.68,153.29,397.35,191.86Z" fill="#ad805d" fill-rule="evenodd"/><path d="M301.68,191.41h-2.93c.61-17-1-58.26,1.71-52.27C303.27,133.16,301.23,174.45,301.68,191.41Z" fill="#ad805d" fill-rule="evenodd"/><path d="M76.74,190.34h-2.2c.63-32.53-.55-84.42,1.24-104.55C78.91,93.11,76.07,158.78,76.74,190.34Z" fill="#ad805d" fill-rule="evenodd"/><path d="M22,190.08c-2.47,9.17-1.55-50.49-.48-52.28C23.94,128.63,23,188.29,22,190.08Z" fill="#ad805d" fill-rule="evenodd"/><path d="M466.92,154.86C466,131,471.37,136,471.33,147.4,472.24,171.26,466.87,166.25,466.92,154.86Z" fill="#ad805d" fill-rule="evenodd"/><path d="M313.51,161.59h-2.2c.56-22.69-.62-64.31,1.08-74.67C315.43,85.86,312.91,138.86,313.51,161.59Z" fill="#ad805d" fill-rule="evenodd"/><path d="M237.54,161.23c-1.14-.62-2.79,3.58-2.88-7.47C234,127.53,239.24,133.77,237.54,161.23Z" fill="#ad805d" fill-rule="evenodd"/><path d="M488.89,140H486.7c.56-22.69-.63-64.34,1.08-74.67C490.82,64.3,488.3,117.31,488.89,140Z" fill="#ad805d" fill-rule="evenodd"/><path d="M131.76,138.33h-2.92c.61-17-1-58.26,1.7-52.27C133.35,80.08,131.3,121.37,131.76,138.33Z" fill="#ad805d" fill-rule="evenodd"/><path d="M469.32,110.05h-2.19c.48-13.12-.68-43.86.94-44.79C470.74,58.17,468.94,94.66,469.32,110.05Z" fill="#ad805d" fill-rule="evenodd"/><path d="M481.83,87.71h-2.19C480.21,65,479,23.38,480.73,13,483.76,12,481.25,65,481.83,87.71Z" fill="#ad805d" fill-rule="evenodd"/><path d="M302.18,86.86h-2.92c.81-22.72-1.2-75.75,1.82-74.68C304.09,11.13,301.59,64.14,302.18,86.86Z" fill="#ad805d" fill-rule="evenodd"/><path d="M183.86,86.3h-2.92c.81-22.72-1.21-75.75,1.81-74.68C185.79,10.57,183.27,63.57,183.86,86.3Z" fill="#ad805d" fill-rule="evenodd"/><path d="M171.45,86.24l-2.93,0c.8-22.71-1.2-75.74,1.81-74.67C173.38,10.51,170.85,63.52,171.45,86.24Z" fill="#ad805d" fill-rule="evenodd"/><path d="M417.67,65h-2.19c0-10,.09-19.92.14-29.89C418.1,27.65,418,45.49,417.67,65Z" fill="#ad805d" fill-rule="evenodd"/><path d="M404.53,64.95c-2.47,9.17-1.54-50.49-.48-52.29C406.52,3.49,405.59,63.15,404.53,64.95Z" fill="#ad805d" fill-rule="evenodd"/><path d="M343.18,64.66c-2.47,9.17-1.55-50.49-.48-52.29C345.17,3.2,344.25,62.86,343.18,64.66Z" fill="#ad805d" fill-rule="evenodd"/><path d="M211.13,34.14c-1.15-.62-2.81,3.58-2.89-7.47C207.58.46,212.82,6.68,211.13,34.14Z" fill="#ad805d" fill-rule="evenodd"/><path d="M419.64,266.65c.26,37.77-1.92,99.43,1.7,104.56,1,29.22-2,15.45-2.34,29.85,3.46,21.73,1.72,71.92-1.16,89.61-3.38,14-.85-29.66-3.54-22.42-2.19.11.76,55.35-2.41,44.8-3.17-21.22-.09-103.62-.74-149.37h2.92c-1.22-52.22,4-167.34-2.1-171.76.62-32.54-.56-84.42,1.22-104.55C418,107.71,413.16,258.51,419.64,266.65Z" fill="#ad805d" fill-rule="evenodd"/><path d="M242.17,265.8h1.46c2.1-1-.39-51.27,1.7-52.27,1.54,64.17-2.73,200.36-2.87,298.7-2.94,20.05-.51-26.26-1.29-37.35-.17-2.38-2.9-8.22-2.89-7.48-1.38-47,1.73-117.27.85-179.22,1.17-.61,2.77,3.61,3-7.45.84-22.46-1.56-13.24-2.86-15,1.17-55.45-1.15-148.42,2.31-179.22C244.73,117.4,241.53,210.35,242.17,265.8Z" fill="#ad805d" fill-rule="evenodd"/><path d="M191.69,437.32c-.56,22.71.63,64.32-1.09,74.68-2.82-12.94-4.48-37-4.75-74.71-3.52-3.87-.1,67-2.55,74.68-2.34-25-1.54-68.09-1-97.08,0-1.66,2.1,1.72,2.18,0,2.87-59.36-2.07-121.64-1.33-179.25,0-1.3,2.12,1.47,2.18,0,1.62-37.7-1.19-103.21,1.44-149.34C191.17,91,184,208,190.66,190.88q-.11,22.41-.21,44.79l-5.1,0q-.12,26.15-.25,52.28c3.25,14,1.15-29.66,3.76-22.39,2.67-7.06.89,29.43,1.24,44.82h-2.91q-.28,59.74-.57,119.49C186.84,446.52,190.19,432.87,191.69,437.32Z" fill="#ad805d" fill-rule="evenodd"/><path d="M348.63,146.82c1.48,17.13,3.47,41.17-.25,52.27,4.74,35.94-.19,99.57-1.4,141.89-3.89-13.47-1.81-79.44-1.59-127,.24-50.06.51-107.44.71-149.34C350.73,83.1,348,22.44,350,12.4c5.26,26.66-5.55,85.29,1,104.57C352,146.19,349,132.42,348.63,146.82Z" fill="#ad805d" fill-rule="evenodd"/><path d="M88.79,265.07c-1.26-4.3-4.34,9-4.34-7.49,1.21-21.2,4.22-64.06,1.91-97.08-3.29-9.2-.17,50.47-2.44,52.27-5.67-11.32.5-63.88,1.81-74.67C90,148.7,89.25,208.42,88.79,265.07Z" fill="#ad805d" fill-rule="evenodd"/><path d="M85.16,108.23c-1.16-.63-2.81,3.58-2.89-7.47,3.34-8.58,2.86-58.23,4.08-89.61C90.13,29.54,86.26,91,85.16,108.23Z" fill="#ad805d" fill-rule="evenodd"/><path d="M250.32,86.62c-1.16-.63-2.81,3.58-2.9-7.47.77-20.57,3.74-17.48,3.87-44.81C255.72,48.24,249.59,62.43,250.32,86.62Z" fill="#ad805d" fill-rule="evenodd"/></g><path d="M321.17,273.5,327,228.1h-45v-29c0-13.14,3.66-22.1,22.51-22.1h24V136.4a320.46,320.46,0,0,0-35-1.79c-34.67,0-58.38,21.16-58.38,60V228.1H196v45.4H235.2V390h46.87V273.5Z" fill="#fff" style="mix-blend-mode:soft-light"/><path d="M314.88,267.2l5.85-45.4h-45v-29c0-13.14,3.66-22.1,22.51-22.1h24V130.1a320.46,320.46,0,0,0-35-1.79c-34.67,0-58.38,21.16-58.38,60V221.8H189.69v45.4H228.9V383.69h46.87V267.2Z" fill="#7a5604"/></g></g></svg>